<?xml version="1.0" encoding="UTF-8"?><svg id="_レイヤー_2" xmlns="http://www.w3.org/2000/svg" viewBox="0 0 98.04 277.47"><defs><style>.cls-1{fill:#fff;}</style></defs><g id="_中段"><path id="_ガーベラ" class="cls-1" d="M45.15,43.53c.07-1.13.63-1.99,1.51-2.8.76-.7,2.03.31,1.27,1.01-1.26,1.16-1.34,2.26-.06,3.44.76.7-.4,1.81-1.16,1.11-.79-.73-1.64-1.69-1.57-2.76ZM29.47,43.73c-6.8,5.71-17.74,10.36-25.44,3.75,6.49-2.55,13.69-3.85,20.74-2.5,1.08.21,1.43-1.26.34-1.47-7.87-1.49-15.84.12-22.99,3.1-.55.23-.44.86-.12,1.19,8.37,8.4,21.03,3.42,28.73-3.05.8-.67-.48-1.68-1.27-1.01ZM47.93,40.24c2.69-2.35,5.29-4.54,5.38-8.05.02-.97-1.69-.88-1.72.09-.08,3.01-2.66,4.96-4.94,6.95-.79.69.49,1.69,1.27,1.01ZM22.37,65.28c.07-3.29.66-6.71,3.22-9.29,2.58-2.61,6.07-4.36,9.22-6.39.89-.58,1.82.69.93,1.26-.09.06-.18.11-.26.16.42.08.77.39.64.85-.82,2.92-1.36,5.95-3.21,8.54-2.08,2.92-5.83,4.43-9.4,5.52-.49.15-1.13-.19-1.12-.67ZM24.14,64.14c3.18-1.07,6.33-2.59,7.87-5.36,1.24-2.24,1.72-4.69,2.38-7.09-2.29,1.38-4.72,2.69-6.62,4.43-2.51,2.3-3.42,4.99-3.64,8.02ZM35.43,40.5c-1.17-.34-3.47-1.27-4.59-.37-.98.78.56,1.95,1.17,2.42,1.93,1.46,4.13,2.68,6.29,3.86.94.51,1.66-.83.73-1.34-.06-.03-.17-.07-.22-.1.52-.17.77-.82.26-1.29-1.63-1.49-1.65-3.56-1.65-5.48,0,0-.41,0-.41,0v-6c0-.97-1-.88-1,.09v6s.06,0,.06,0c0,2.16.06,4.2,1.51,5.92-1.13-.64-2.24-1.31-3.32-2.01-.34-.23-.67-.47-1-.71.62.14,1.22.31,1.82.49,1.05.3,1.39-1.17.35-1.47ZM58.61,28.14c.68.75,2.13-.05,1.45-.81-2.26-2.5,6.65-8.3,8.3-9.33,5.37-3.35,12.39-5.51,18.79-3.46-7.03,7.13-16.17,12.4-26.35,15.48-1.05.32-.52,1.74.53,1.43,10.84-3.28,20.58-8.97,27.88-16.71.34-.36.29-.96-.24-1.17-7.66-3.05-15.84-.37-22.3,3.65-2.47,1.54-11.14,7.5-8.05,10.92ZM62.31,36.1c-.87.59.05,1.85.93,1.26,8.2-5.52,18.55-8.42,28.72-6.27-7.17,5.25-16.64,6.32-25.79,6.39-1.11,0-1.01,1.51.1,1.5,10.14-.07,20.47-1.45,28.1-7.74.52-.43.11-1.09-.46-1.24-11.05-2.94-22.65.08-31.59,6.1ZM16.23,92.95c.56.05,1.18-.35.93-.94-1.65-3.97-5.03-7.46-9.24-9.61-.15-.14-.3-.27-.44-.41-.7-.16-1.41-.32-2.11-.52,0,0,0,0,0,0,0,0,0,0,0,0-.08-.02-.17-.04-.25-.07-.23-.07-.38-.2-.48-.34-1-.27-1.75,1.02-.73,1.34,1.02.32,2,.72,2.94,1.2,5.62,5.35,10.09,11.73,10.34,19.18.03.97,1.75.88,1.72-.09-.12-3.46-1.11-6.71-2.69-9.75ZM49.65,68.74c2.95-3.38,4.92-7.73,2.84-11.87-2.05-4.1-7.6-4.85-12.13-4.39-1.1.11-1.01,1.61.1,1.5.21-.02.42-.04.63-.05-1.1,5.2-.55,12.73,5.81,14.97,1.02.36,1.81-.97.78-1.34-5.75-2.03-5.87-9.13-4.82-13.7,3.42.02,6.73.96,8.25,3.99,1.68,3.35-.42,7.22-2.73,9.88-.67.77.6,1.78,1.27,1.01ZM54.39,43.53c-.87.56-1.78,1.03-2.57,1.69-.8.67.48,1.68,1.27,1.01.78-.66,1.74-1.11,2.59-1.69,1.18-.79,2.02-1.84,2.7-2.98.28-.48-.06-.88-.51-1.02,1.18-1.1,2.23-2.33,2.32-3.86.06-.96-1.66-.87-1.72.09-.1,1.57-2.04,2.93-3.22,3.95-.15.13-.21.28-.23.42-.11-.52-.93-.91-1.49-.42l-5.16,4.5c-.79.69.49,1.69,1.27,1.01l5.16-4.5c.15-.13.21-.28.22-.42.09.4.6.72,1.08.62-.48.6-1.03,1.14-1.73,1.59ZM17.41,171.57c.04-35.55,3.99-72.54,18.61-105.99.39-.89-1.14-1.59-1.53-.68-14.44,33.03-18.43,69.27-18.79,104.38-.36,36.06,3.6,72.64,13.58,107.69.27.94,1.9.47,1.64-.46-9.73-34.19-13.55-69.76-13.51-104.93ZM57.04,37.29c.79.69,1.94-.43,1.16-1.11l-1.72-1.5c-.79-.69-1.94.43-1.16,1.11l1.72,1.5ZM28.85,34.37c.92-.54,0-1.8-.93-1.26-11.61,6.79-22.09-.43-25.81-10.4,8.75,1.55,16.49,4.7,24.17,8.7.95.5,1.73-.84.78-1.34-8.24-4.28-16.52-7.6-26.01-9.07-.66-.1-1.16.42-.99.97,3.62,11.58,15.86,19.96,28.8,12.4ZM97.89,57.33c-7.33-9.17-19.15-13.68-31.51-15.33-1.09-.15-1.45,1.32-.35,1.47,11.21,1.5,22.01,5.35,29.14,13.19-9.55-1.55-19.51-4.04-26.66-9.98-.8-.67-1.96.44-1.16,1.11,7.91,6.57,19.17,9.11,29.64,10.68.7.11,1.34-.59.9-1.14ZM13.63,180.33c.63.79-.81,1.6-1.45.81C4.18,171.09,1.73,159.69,0,147.78c-.14-.96,1.58-1.04,1.72-.09.05.37.11.74.17,1.11.34-.33,1.02-.44,1.42.02,7.11,8.23,6.96,19.12,8.73,28.86.03.17-.01.29-.08.41.53.75,1.07,1.5,1.66,2.23ZM9.84,174.79c-1.27-8.6-1.77-17.77-7.79-24.92,1.35,8.76,3.26,17.16,7.79,24.92ZM60.59,108.1c-6.99,2.95-14.72,4.16-21.71,7.09-6.89,2.89-10.96,8.11-13.06,14.39-.31.93,1.38,1.22,1.69.3,2.45-7.31,7.58-11.9,15.61-14.68,3.18-1.1,6.43-1.96,9.66-2.89-11.34,5.37-20.31,12.18-25.16,23.07-.4.89,1.13,1.58,1.53.68,5.11-11.49,14.9-18.28,27.21-23.71.61-.27.49-.84.08-1.15,1.72-.55,3.42-1.15,5.08-1.85,1-.42.06-1.68-.93-1.26ZM45.11,174.1c-10.02,4.56-16.5,12.15-21.33,20.64-.02-.16-.03-.32-.04-.48l-.81,1.62c-.11.21-.26.34-.42.43-.03.09-.07.18-.1.27-1.5-9.55-1.1-19.48-1.05-29.09.06-11.86.64-23.71,1.95-35.5,1.23-11.04,3.32-21.85,6.58-32.47,3.37-11,7.59-21.72,10.6-32.83.34-1.24-1.62-1.64-1.96-.4-3.01,11.11-7.14,21.86-10.6,32.83-3.53,11.19-5.49,22.69-6.78,34.34-1.26,11.33-1.68,22.75-1.78,34.15-.1,10.76-.48,21.87,1.65,32.46-.69,1.44-1.36,2.88-2,4.34-.39.89,1.14,1.58,1.53.68.18-.42.37-.83.56-1.25-.03-.07-.03-.15,0-.23.37-.96.84-1.89,1.35-2.79.29-.18.49-.49.5-.88.04-.06.06-.12.1-.17.12-.2.26-.4.4-.6.16-.36.33-.71.52-1.06.04-.07.09-.12.15-.16-.01-.1-.02-.2-.03-.29,3.27-6.2,7.31-12,12.89-16.61-5.64,5.93-9.94,13.22-12.41,20.8-.02-.17-.04-.35-.06-.52-.13.33-.27.67-.41,1-.23.61-.44,1.22-.66,1.83-.08.32-.16.65-.24.97.05.38.09.76.14,1.13-1.04,4.56-1.41,9.14-.98,13.53.09.96,1.81.88,1.72-.09-.25-2.55-.22-5.18.06-7.84,3.23,21.53,8.43,42.88,15.46,63.61.31.93,1.95.46,1.64-.46-7.62-22.46-12.99-45.57-16.11-68.87,2.84-11.95,10.46-23.71,20.91-30.76.88-.59.06-1.71-.93-1.26ZM75.67,66.69c.11.58-.72.95-1.25.71-7.37-3.26-15.18-7.23-19.25-13.76-.15-.24-.13-.47-.03-.66-1.34.17-2.73.49-4.14.97-1.03.35-1.56-1.07-.53-1.43,12.55-4.3,23.11,3.33,25.2,14.17ZM73.62,65.35c-2.07-7.51-8.65-12.89-16.98-12.5,3.64,5.83,10.36,9.5,16.98,12.5ZM49.84,26c-2.97-8.46-.02-16.59,7.32-22.41,2.92,9.45-.18,18.61-8.77,25.14-.84.64.44,1.64,1.27,1.01,9.39-7.13,12.49-17.43,8.78-27.74-.15-.42-.85-.71-1.28-.4-8.64,6.31-12.29,15.35-8.95,24.86.32.93,1.96.46,1.64-.46ZM34.68,28.29c.89.55,2.06-.55,1.16-1.11-9.73-6.01-11.24-16.7-5.5-25.35,9.4,6.2,12.02,15.98,7.59,25.56-.41.89,1.12,1.58,1.53.68,4.82-10.42,1.96-21.32-8.78-27.89-.48-.3-1.02-.24-1.35.21-6.73,9.28-5.24,21.36,5.35,27.89ZM54.23,47.98c2.71-.11,5.56-1.66,7.46-3.24.8-.67-.47-1.68-1.27-1.01-1.58,1.32-4.05,2.67-6.29,2.76-1.11.04-1.01,1.54.1,1.5ZM39.56,32.28c0,2.28.16,4.75,2,6.51.17.16.36.23.55.23-.42.03-.83.29-.83.76,0,2.28.16,4.75,2,6.51.75.72,1.9-.4,1.16-1.11-1.49-1.42-1.44-3.68-1.44-5.49,0-.47-.4-.68-.82-.68.6-.06,1.09-.81.54-1.33-1.49-1.42-1.44-3.68-1.44-5.49,0-.97-1.72-.88-1.72.09ZM47.01,38.19v-6c0-.97-2-.88-2,.09v6c0,.97,2,.88,2-.09Z"/></g></svg>