<?xml version="1.0" encoding="UTF-8"?><svg id="_レイヤー_2" xmlns="http://www.w3.org/2000/svg" viewBox="0 0 86.42 245.98"><defs><style>.cls-1{fill:#fff;}</style></defs><g id="_中段"><path id="_チューリップ" class="cls-1" d="M49.91,1.5c3.16.07,5.33,1.3,7.51,3.19.78.68-.37,1.79-1.16,1.11-1.81-1.58-3.58-2.75-6.25-2.8-1.1-.02-1.21-1.52-.1-1.5ZM79.92,87.34c-.48-.87-1.92-.05-1.45.81.35.63.66,1.27.98,1.92-.45-.13-.99,0-1.1.53-4.99,25.1-9.24,50.5-19.16,74.57-3.91,9.5-9.33,18.44-14.61,27.42,6.38-46.27,9.7-92.81,11.39-139.38.01-.3-.16-.49-.39-.59,2.23-1.02,4.09-2.27,5.6-3.72.15.52.93.9,1.44.36,12.72-13.19,10.7-34.53,1.81-48.91-.21-.34-.83-.46-1.19-.23-4.58,2.96-4.06,6.58-5.54,10.98-.31.93,1.37,1.22,1.68.3,1.2-3.58.77-6.92,4.04-9.49,7.3,12.36,9.46,29.89,1.14,42.33C71.76,29.66,57.67,5.43,41.75.08c-1.02-.34-1.82.99-.78,1.34,19.02,6.39,36.69,42.78,11.1,50.91-.47-.27-1.17-.13-1.44.4-.11-.11-.26-.2-.5-.21-4.49-.29-7.89-1.38-10.42-3.06.77-.1,1.19-1.08.32-1.37-1.27-.43-2.41-.95-3.47-1.52-8.38-10.68.8-32.85,2.2-44.16.12-.95-1.57-1.27-1.68-.3-1.32,10.72-8.97,30.36-3.84,42.18-9.5-8.21-7.27-23.78-12.49-34.55,3.73,1.61,6.72,3.96,9.72,6.57.79.69,1.94-.43,1.16-1.11-1.04-.91-2.09-1.78-3.15-2.6.11-2.51,1.22-5,3.21-6.84.76-.7-.51-1.71-1.27-1.01-1.98,1.83-3.15,4.21-3.53,6.68-2.24-1.58-4.65-2.91-7.49-3.84-.81-.26-1.53.38-1.11,1.07,7.33,12.02,2.79,30.97,16.93,38.96,2.77,3.53,7.35,5.9,14.57,6.37.31.02.56-.09.73-.26.82,46.27-7.36,92.03-13.49,137.73-.17,1.27,1.79,1.68,1.96.4,6.14-45.81,14.32-91.69,13.52-138.07.61-.19,1.21-.4,1.78-.62-.01.04-.03.08-.04.13-1.73,47.84-5.19,95.65-11.93,143.17-5.93,10.26-11.37,20.68-13.85,32.13-.21.95,1.48,1.25,1.68.3,2.4-11.1,7.43-21.03,13.34-30.99.21-.08.37-.24.41-.51.01-.08.02-.16.03-.24,6.58-11.04,13.03-21.98,17.77-33.76,9.39-23.32,13.44-47.96,18.25-72.22,5.96,13.12,5.26,28.68,3.63,42.37-1.7,14.29-6.44,26.95-14.58,39.43-14.41,22.09-39.1,44.12-38.85,71.08-2.61-1.16-4.46-2.71-4.8-5.53-.38-3.14.76-6.56,1.35-9.63.18-.95-1.5-1.26-1.68-.3-1.39,7.15-3.46,13.92,5.61,17.32.6.22,1.27-.12,1.25-.71-.53-14.19,6.78-27.13,14.97-38.99,8.64-12.52,18.73-24.25,26.61-37.17,7.62-12.49,10.94-25.53,12.28-39.55,1.32-13.88,1.24-29.33-5.84-42.14ZM30.19,180.79c.1.96,1.82.88,1.72-.09-1.03-9.65-6.29-18.28-11.74-26.55-5.64-8.56-12.78-17.39-14.05-27.45-.12-.96-1.84-.88-1.72.09,1.12,8.87,6.69,16.76,11.74,24.31,6.19,9.25,12.89,18.79,14.05,29.69ZM32.66,206.67c-.02-.05-.06-.09-.07-.15,0-.02,0-.04-.02-.07-.17-.43-.35-.85-.53-1.28.09.1.22.16.36.21,0-.07-.03-.14-.03-.22,0-.02-.02-.03-.03-.05-.3-.04-.59-.22-.76-.6-.17-.38-.27-.84-.4-1.27-.13-.29-.25-.57-.39-.86-.03-.04-.05-.1-.08-.13-.15-.18-.21-.36-.22-.54-.48-1.02-.97-2.03-1.47-3.03-12.03-23.93-31.82-45.57-26.37-73.28.19-.95-1.5-1.26-1.68-.3-2.98,15.13,1.19,29.39,8.52,43.09,7.39,13.82,17.05,26.69,22.46,41.29.34.92,1.98.46,1.64-.46-.29-.79-.6-1.57-.92-2.35Z"/></g></svg>