<?xml version="1.0" encoding="UTF-8"?><svg id="_レイヤー_2" xmlns="http://www.w3.org/2000/svg" viewBox="0 0 111.8 274.55"><defs><style>.cls-1{fill:#fff;}</style></defs><g id="_中段"><path id="_バラ" class="cls-1" d="M27.6,33.82c-.2,0-.35-.06-.48-.15-.12.3-.23.61-.33.93-.25.81-1.72.55-1.46-.26,1.65-5.2,5.74-9.12,10.76-12.12.79-.47,1.6.62.8,1.09-3.98,2.37-7.38,5.37-9.26,9.2,8.27-.18,13.59-4.97,12.59-12.31-.11-.84,1.38-.9,1.49-.07,1.1,8.06-4.97,13.54-14.12,13.69ZM44.58,14.62c-.48-.73-1.73-.02-1.25.7,4.57,6.93,5.18,15.19-1.41,21.31-.66.61.44,1.49,1.1.88,7.05-6.54,6.47-15.46,1.57-22.89ZM28.65,20.92c-6.24,2.87-10.52,7.87-13.68,13.25-.44.75.89,1.34,1.33.59,3.05-5.2,7.13-9.97,13.15-12.75.85-.39.04-1.48-.8-1.09ZM39.44,39.02c-7.87,1.22-15.12-.38-21.98-3.83-.83-.42-1.51.74-.68,1.16,7.06,3.56,14.63,5.23,22.74,3.97.93-.14.86-1.45-.08-1.3ZM58.63,44.25c-6.86,1.15-13.99,3.42-20.94,4.55,9.34-6.05,14.27-16.03,14.46-26.07.02-.84-1.47-.76-1.49.08-.19,9.84-5.16,19.7-14.56,25.42-.37.22-.38.58-.22.85-8.12,1.08-15.94.31-22.72-5.98-.66-.61-1.66.35-1,.96,5.72,5.31,12.7,7.48,20.97,6.84,8.87-.69,17.26-3.94,25.97-5.4.94-.16.47-1.39-.46-1.24ZM62.93,58.62c-8.5,4.06-17.83,6.92-27.23,8.9-7.33,1.55-17.23,3.22-24.83.67,4.41-1.05,8.44-2.85,12.39-4.79.38.11.77.21,1.17.31.82.2,1.14-.79.56-1.16,5.2-2.59,10.36-5.28,16.22-6.66.93-.22.46-1.45-.46-1.24-6.35,1.49-11.88,4.56-17.53,7.36-10.91-3.34-16.44-13.1-21.85-21.39-.48-.73-1.73-.02-1.25.7,5.42,8.31,10.95,17.72,21.43,21.51-4.05,1.95-8.21,3.66-12.82,4.48-.52-.25-1.03-.53-1.51-.83-.78-.48-1.79.48-1.01.96.12.07.24.13.36.2-.83.19-.73,1.37.18,1.27.61-.07,1.21-.16,1.81-.26,7.4,3.22,16.94,2,24.67.66,10.54-1.82,21.09-5.1,30.52-9.61.85-.4.03-1.49-.8-1.09ZM29.99,2.83C19.61,12.04,12.31,23.29,4.54,34.18c-.51.71.82,1.3,1.33.59C13.57,23.98,20.8,12.83,31.09,3.71c.68-.6-.43-1.47-1.1-.88ZM60.31,3.92c-10.06-.06-20.03-1.19-29.61-3.89-.91-.26-1.21,1.02-.3,1.27,9.71,2.74,19.82,3.85,30,3.91.96,0,.87-1.29-.09-1.3ZM92.39,13.63c0-.28-.28-.55-.59-.6-7.99-1.17-15.94-2.5-23.93-3.69-.12-.14-.24-.28-.36-.43-1.16-1.48-1.59-1.11-3.82-1.06-11.29.25-22.56,2.52-33.38,5.19-.93.23-.46,1.46.46,1.24,11.18-2.76,22.65-4.9,34.3-5.16.25,0,.49.07.74.2-.36.33-.32.98.35,1.08.36.05.72.11,1.09.16.67.77,1.28,1.65,1.73,2.1,1.4,1.4,3.1,2.65,4.88,3.67,4.04,2.32,8.43,3.71,13.17,4.46.94.15,1.25-1.12.3-1.27-5.24-.83-10.07-2.47-14.3-5.33-1.44-.97-2.69-2.11-3.84-3.34,6.06.92,12.11,1.9,18.17,2.83,1.43.22,3.52-.02,3.59,1.49.06,1.13.17,2.26.24,3.4.21,3.13.16,6.32-1.7,9.09-.49.72.84,1.31,1.33.59,2.99-4.45,1.67-9.75,1.57-14.63ZM71.49,17.37c-.21-.82-1.63-.41-1.42.4,2.67,10.37-2.48,20.86-8.9,29.4-.53.7.81,1.28,1.33.59,6.66-8.87,11.75-19.67,8.99-30.4ZM92.48,27.68c-11.46,14.74-28.8,21.81-48.56,24.35-.94.12-.87,1.42.09,1.3,9.86-1.27,19.48-3.46,28.31-7.58,8.81-4.11,15.93-10.31,21.5-17.48.54-.69-.79-1.27-1.33-.59ZM92.48,32.88c-5.2,6.78-10.72,13.57-18.18,18.6-7.48,5.04-16.58,6.97-25.91,7.05-.96,0-.87,1.31.09,1.3,9.69-.08,18.78-2.18,26.63-7.25,7.76-5.01,13.4-12.19,18.71-19.1.54-.7-.8-1.28-1.33-.59ZM74.47,19.97c-.35-.78-1.77-.38-1.42.4,2.76,6.2,4.3,12.53,2.96,19.17-.17.82,1.29,1.09,1.46.26,1.39-6.85-.15-13.42-3-19.83ZM5.91,64.17c-1.34-3.78-1.45-7.62-1.46-11.54,0-.84-1.49-.76-1.49.07,0,4.03.15,7.99,1.53,11.86.29.8,1.7.4,1.42-.4ZM78.96,54.1c.16-.82-1.3-1.09-1.46-.26-1.62,8.2-4.37,16.49-2.99,24.87.13.82,1.62.76,1.49-.07-1.36-8.27,1.37-16.44,2.97-24.53ZM75.47,203.45c-2.69-2.72-4.99-5.71-7.39-8.61-.38-.46-.77-.93-1.17-1.4-.14.2-.4.33-.74.27-10.05-1.83-19.78-6.64-21.46-16.2-.08-.43.46-.75.89-.67,8.95,1.47,15.49,7.75,20.76,13.8,2.69,3.09,5.16,6.31,7.85,9.4,1.33,1.52,3.35,4.28,5.74,5.13-.45-4.93-.84-9.87-1.03-14.8-.53-13.5-.62-28.22,5.66-40.86-.41-2.25-.86-4.48-1.33-6.72-.25.26-.68.38-1.04.07-4.72-4.12-9.44-8.24-14.17-12.36-2.16-.48-4.03-1.09-5.45-2.29-.03.16-.13.31-.34.42-7.6,3.91-15.48,6.41-24.4,5.29-.37-.05-.7-.44-.58-.77,3.18-8.8,12.93-13.5,23.24-12.21.35.04.54.32.59.6.5,2.7,1.28,6.18,4.64,7.25.46.14.93.26,1.4.37.18-.38.74-.63,1.17-.25l.68.59c1.15.18,2.31.32,3.44.55.94.19.63,1.46-.3,1.27-.46-.09-.91-.18-1.35-.27l12.23,10.67c-1.04-4.81-2.19-9.6-3.47-14.37-.16-.49-.31-.98-.48-1.47-.04.72-.07,1.44-.08,2.16,0,.84-1.5.91-1.49.08.02-1.94.16-3.86.42-5.77-.93-2.9-1.83-5.8-2.67-8.71-.6-2.06-1.18-4.12-1.73-6.19-3.68-10.95-7.87-21.77-12.37-32.47-.12-.28-.01-.5.18-.65-11.07,3.85-24.25,2.29-35.58-1.57-.89-.31-.21-1.46.68-1.16,15.01,5.12,33.51,6.11,45.32-5.06.65-.61,1.75.26,1.1.88-3.26,3.09-7.01,5.28-11.05,6.75.31-.03.64.08.78.41,2.83,6.71,5.52,13.47,8.05,20.27-.37-1.98-.7-3.97-.96-5.96-.79-5.94-1.4-12.29.42-18.15.25-.81,1.71-.55,1.46.26-1.93,6.19-1.15,13.01-.18,19.28.88,5.69,2.15,11.32,3.63,16.92,1.27,3.8,2.48,7.62,3.62,11.45.94-4.07,2.53-8,4.95-11.66.48-.72,1.81-.14,1.33.59-.93,1.4-1.72,2.85-2.41,4.33.58-.16,1.32.31.92.87-2.71,3.73-4.31,8.29-1.53,12.35.47.69-.66,1.36-1.19.77.06.21.12.41.17.62,3.38,10.12,7.21,20.13,11.53,29.96.27.62-.68,1.11-1.21.68-2.79-2.26-3.53,2.16-4.17,3.94-.8,2.23-1.52,4.49-2.06,6.78-1.21,5.05-1.93,10.19-2.21,15.34-.48,8.73-.04,17.48.84,26.18,2.6-3.16,5.72-6.04,8.83-8.78-.2-3.38-.17-5.88,1.59-9.14.13-.24.51-.42.81-.34,4.52,1.2,9.56.92,14.01,2.29.61-.99,1.12-2.02,1.5-3.09.28-.8,1.75-.54,1.46.26-.39,1.11-.94,2.25-1.61,3.37.35.39-.05,1.04-.65,1.03-2.34,3.5-5.86,6.69-9.85,8.16-3.52,1.29-5.2-.03-5.76-2.15-.03.1-.08.2-.19.29-3.56,3.1-7.14,6.4-9.93,10.11.08.75.16,1.5.25,2.26,2.23,19.04,6.8,38.11,6.9,57.31.05.17.02.37-.18.53-.78.66-1.65,1.2-2.51,1.78-.37.25-1,.63-1.39,1.07,0,.03,0,.05,0,.08-.59.05-1.19.08-1.78.12.06-.19.13-.37.24-.54,0-.08,0-.17,0-.25.38-12.11.35-25.12-6.19-36.14-.44-.74.81-1.45,1.25-.7,6.29,10.61,6.79,23.01,6.48,34.71,0,.29-.02.58-.03.87.87-.61,1.87-1.15,2.61-1.72-.14-19.27-4.78-38.39-6.94-57.53-.08.12-.16.24-.24.37.64,7,1.19,14,1.22,21.01,0,.84-1.48.91-1.49.08-.03-6.79-.55-13.56-1.16-20.33-.28-.16-.45-.46-.25-.8.05-.08.11-.16.15-.24-.21-2.27-.42-4.54-.63-6.82-1.85-.49-3.36-1.81-4.61-3.07ZM93.69,198.29c.04-.48.11-.97.21-1.45.17-.83,1.63-.56,1.46.26-.26,1.25-1.17,5.14,1.32,5.32,1.88.14,3.82-1.01,5.23-1.98,2.36-1.62,4.51-3.62,6.13-5.88-3.8-1.11-8.11-.9-11.97-1.77-2.34-.53-2.52,2.85-2.38,5.49ZM61.8,127.43c-.78-.91-1.38-2.09-1.75-3.67-.54-2.3-2.79-1.94-5.13-1.7-2.07.22-4.17.6-6.08,1.36-4.73,1.89-8.11,5.07-9.85,9.29,8.19.81,15.43-1.59,22.45-5.2.13-.06.25-.09.37-.09ZM82.23,211.09c-.16-1.5-.31-3.02-.45-4.54-.05.05-.11.09-.19.12.14,1.56.29,3.13.44,4.7.07-.09.14-.18.2-.28ZM80.54,193.18c.22,4.1.57,8.21.94,12.31.08.03.15.08.21.14-1.52-16.99-1.46-34.79,6.32-50.55.13-.27.5-.39.81-.34.49.07.93.2,1.35.35-2.06-4.77-4.03-9.58-5.88-14.43.55,2.53,1.09,5.05,1.56,7.59.31.06.6.27.6.59v2.6c0,.73-.99.86-1.37.37-5.73,12.89-5.28,27.85-4.55,41.38ZM65.98,192.34c-5.09-5.99-11.17-12.22-19.61-14.03,1.98,8.21,10.77,12.33,19.61,14.03ZM110.62,88.52c-3.73,1.54-8.29,1.74-12.32,2.25-4.85.62-9.77,1.23-14.43,2.6-3.01.88-6.7,2.44-7.72,5.3-1.36,3.79,1.82,7.52,4.44,10.25.61.63,1.87-.06,1.25-.7-2.51-2.62-6.09-6.55-3.77-10.08,1.88-2.86,6.94-3.83,10.3-4.54,7.4-1.56,16.1-1.12,23.06-3.99.87-.36.05-1.45-.81-1.09ZM109.13,92.42c-3.32,2.16-6.65,4.29-9.59,6.85-1.58,1.38-3.01,2.94-4.23,4.57-2.34,3.11-6.19,1.67-9.66,1.48-.96-.05-.86,1.25.08,1.3,2.32.12,5.53,1.12,7.85.38,2.34-.75,2.77-2.28,4.29-4.06,3.26-3.82,7.73-6.6,12.06-9.42.77-.5-.03-1.6-.8-1.09Z"/></g></svg>