<?xml version="1.0" encoding="UTF-8"?><svg id="_レイヤー_2" xmlns="http://www.w3.org/2000/svg" viewBox="0 0 144.59 267.31"><defs><style>.cls-1{fill:#fff;}</style></defs><g id="_中段"><path id="_かすみ草" class="cls-1" d="M131.98,100.24c-6.04,1.97-12.03,4.16-17.88,6.65,4.23,1.32,8.47,2.59,12.5,4.48.84.4.22,1.7-.62,1.31-4.36-2.05-8.98-3.36-13.56-4.8-.1-.03-.19-.08-.26-.15-6.02,2.65-11.88,5.65-17.48,9.13-.1.23-.2.46-.3.69-.07.58-.15,1.15-.22,1.73-.06.44-.41.61-.75.56-4.28,10.2-8.02,20.75-13.4,30.26.16.37.34.73.5,1.1.02.04.03.08.04.12-.2.08-.28.37-.22.61,0,.01,0,.02-.01.03-.1.07-.21.12-.33.14,1.8,38.34,3.73,76.67-2.58,114.63-.15.93-1.56.65-1.41-.27,6.3-37.86,4.37-76.09,2.57-114.33-.54.1-1.16-.4-.8-.99.22-.37.43-.75.65-1.12-6.35-13.8-16.75-25.18-27.43-35.71-.04.15-.12.27-.24.36.04.08.08.16.11.24-.2-.2-.44-.31-.64.05-.04.07-.03.15-.01.23-.03.02-.07.03-.09.06-.12-.04-.23-.07-.36-.08-.11-.05-.23-.02-.32.06-.07-.15-.14-.3-.2-.44-10.82.05-21.62-1.05-32.13-3.82-.89-.24-.64-1.67.26-1.43,9.32,2.46,18.87,3.61,28.47,3.78-7.21-8.41-14.49-16.73-22.39-24.49-.66-.65.27-1.75.94-1.09,8.24,8.09,15.82,16.8,23.33,25.59.31,0,.62,0,.93,0-1.8-4.87-2.15-9.92-2.27-15.19-.02-.94,1.41-1.05,1.43-.11.11,4.88.41,9.59,1.95,14.13.23-.31.65-.45,1-.11,10.49,10.27,20.79,21.29,27.56,34.48-.97-21.01-1.77-42.02-1.02-62.97-.35.22-.89.17-1.09-.33-2.65-6.44-6.66-12.05-11.3-17.14-.35.66-1.29.3-1.32-.36-5.73.1-11.48.25-17.16,1.02-.92.12-1.03-1.33-.12-1.45,5.6-.75,11.27-.91,16.92-1.02-3.75-3.9-7.82-7.49-11.89-10.92-.71-.6.23-1.69.94-1.09,4.15,3.5,8.28,7.18,12.08,11.16,1.14-3.72,1.14-7.61,1.06-11.53-.02-.94,1.41-1.05,1.43-.11.1,4.35.06,8.66-1.34,12.75.05.07.1.15.13.23,4.77,5.2,8.92,10.94,11.7,17.5.05-1.21.1-2.42.15-3.63,0-.08.03-.14.05-.21.03-1.2.12-2.39.24-3.57-.21-.09-.38-.28-.39-.59-.52-20.43-3.72-40.7-4.25-61.12-.03-.94,1.41-1.05,1.43-.11.49,18.8,3.23,37.46,4.07,56.24,1.4-6.74,3.98-13.21,6.9-19.54-.23-.39,0-1.03.52-1.13.01-.03.03-.05.04-.08-.19-2.9-.87-5.64-2.2-8.26-.42-.83.77-1.65,1.19-.81,1.08,2.15,1.79,4.35,2.17,6.65,2.16-4.48,4.42-8.9,6.48-13.29.4-.85,1.69-.21,1.29.64-2.35,5.01-4.99,10.07-7.44,15.22,5.03.21,10-1.08,14.95-1.83.92-.14,1.02,1.31.12,1.45-5.22.8-10.42,2.12-15.73,1.8-4.42,9.49-8.06,19.34-7.99,29.89,0,.15-.05.28-.11.39-.96,22.33-.09,44.75.94,67.16,5.03-9.35,8.67-19.56,12.86-29.39-.08.05-.16.1-.24.16-.16.1-.31.12-.46.1.2-.7.53-1.35,1.03-1.96.08-.09.09-.19.07-.27.03-.02.06-.04.09-.06,1.22-9.61,1.93-19.33,1.76-29.02-.02-.94,1.41-1.05,1.43-.11.15,8.64-.39,17.32-1.36,25.91,4.61-10.02,10.18-19.41,18.89-26.78.71-.6,1.5.62.8,1.21-8.78,7.44-14.33,17-18.93,27.19,11.22-6.7,23.42-11.63,35.8-15.67.88-.29,1.35,1.09.47,1.38ZM110.14,74.62c-1.07-1.11-1.25-2.37-1.29-3.85-.02-.94-1.45-.83-1.43.11.05,1.9.43,3.44,1.78,4.84.65.67,1.59-.42.94-1.09ZM111.83,67.35c-1.63,1.81-1.53,4.07-1.48,6.39.02.94,1.45.83,1.43-.11-.04-1.9-.21-3.82,1.13-5.31.62-.69-.46-1.65-1.08-.96ZM120.44,67.2l-1.65,1.75c-.03-.08-.07-.16-.13-.23-.91,1.06-1.72,2.19-2.26,3.55-.05.12-.13.18-.22.21.24.35.76.52,1.14.13l4.2-4.44c.64-.68-.44-1.64-1.08-.96ZM124.81,70.04c-1.29,1.3-3.31,2.65-5.19,2.77-.92.06-.81,1.51.11,1.45,2.26-.14,4.6-1.69,6.15-3.25.66-.66-.43-1.62-1.08-.96ZM124.72,76.36c-1.46-.03-2.85-.63-4.32-.66-.92-.02-.8,1.44.12,1.45,1.46.03,2.85.63,4.32.66.93.02.8-1.44-.11-1.45ZM123.37,80.03c-.98-.03-1.88-.65-2.88-.68-.92-.03-.8,1.43.12,1.45.98.03,1.88.65,2.88.68.92.03.8-1.43-.11-1.45ZM110.43,78.79c-1.03.02-1.87.26-2.62,1.01-.66.66.43,1.62,1.08.96.47-.47,1.02-.51,1.65-.52.93-.02.81-1.47-.11-1.45ZM113.58,81.16c-.47.47-1.02.51-1.65.52-.92.02-.81,1.47.12,1.45,1.03-.02,1.87-.26,2.62-1.01.66-.66-.43-1.62-1.08-.96ZM131.52,91.55c-1.22.08-1.36,1.25-1.34,2.25.02.94,1.45.83,1.43-.11,0-.23-.01-.44.02-.66,0-.02,0-.02,0-.03.92-.06.81-1.51-.12-1.45ZM140.09,89.94c-1.68.09-3.15.88-4.61,1.65-.82.43,0,1.64.8,1.21,1.24-.66,2.5-1.33,3.92-1.41.92-.05.81-1.5-.12-1.45ZM144.19,96.51c-1.18-.55-2.44-.84-3.62-1.39-.84-.4-1.46.91-.62,1.31,1.18.55,2.44.84,3.62,1.4.84.39,1.46-.91.62-1.31ZM142.92,103.82c-.81-.42-1.75-1.28-1.81-2.28-.05-.94-1.48-.83-1.43.11.09,1.51,1.36,2.83,2.62,3.48.83.42,1.45-.88.62-1.31ZM137.74,102.6c-1.49,1.62-2.22,3.44-2.21,5.67,0,.94,1.44.83,1.43-.11-.01-1.84.64-3.27,1.86-4.6.63-.69-.45-1.65-1.08-.96ZM130.96,96.61c-.01.54-.19.96-.61,1.29-.32.25-.68.43-.96.72-.28.28-.7.34-1.01.06-.28-.25-.34-.75-.07-1.03.29-.3.61-.54.96-.77.11-.08.21-.13.26-.19,0,0,0,0,.01-.02.02-.38.24-.72.65-.75.36-.03.78.28.77.67ZM133.73,102.63c-.65-.68-1.58.42-.94,1.09.02.02.03.03.04.05-.02.04-.07.11-.12.17-.32.37-.81.61-1.23.84-.34.19-.4.7-.19,1.01.23.36.65.39,1,.2.67-.36,1.42-.79,1.8-1.49.37-.67.16-1.35-.34-1.88ZM13.98,79.79c-1.32-.69-2-2.06-2.67-3.34-.43-.83-1.62-.02-1.19.81.8,1.54,1.66,3.03,3.23,3.84.83.43,1.45-.88.62-1.31ZM16.18,74.76c-.63-.69-1.57.41-.94,1.09.68.74.54,2.21.56,3.14.02.94,1.45.83,1.43-.11-.03-1.43-.02-3-1.04-4.12ZM21.77,75.32c-1.13.62-2.07,1.42-2.96,2.36-.64.68.44,1.64,1.08.96.81-.85,1.65-1.55,2.68-2.11.82-.44,0-1.65-.8-1.21ZM25.29,78.3c-1.28,1.28-2.73,1.07-4.33.58-.89-.27-1.14,1.16-.26,1.43,2.15.66,4.02.61,5.67-1.05.66-.66-.43-1.62-1.08-.96ZM12.04,82.12c-.54-.52-1.24-.86-1.98-.88-.39-.01-.69.41-.66.78.03.43.38.66.77.67.37.01.68.29.92.52.67.65,1.61-.45.94-1.09ZM12.99,84.1c-.42.03-.65.38-.66.78,0,.37-.41.68-.74.7-.92.06-.81,1.51.11,1.45,1.17-.07,2.03-1.11,2.06-2.26,0-.4-.41-.7-.77-.67ZM16.56,89.63c-.24.25-.48.5-.73.74-.2.19-.46.43-.73.5-.66.17-1.16-.24-1.21-.92-.04-.63.57-.87,1.01-.69,0,0,.01-.01.02-.02.19-.19.38-.38.56-.58.64-.67,1.72.29,1.08.97ZM18.86,89.83h-.72c-.92.03-.81,1.48.12,1.47h.72c.92-.03.81-1.48-.12-1.47ZM26.63,84.59h-.72c-.92.03-.81,1.48.11,1.46h.72c.93-.03.81-1.48-.12-1.46ZM44.44,94.57c-.47-.24-.84-.51-1.12-.96-.32-.52-.54-1.12-.81-1.67-.43-.84-1.61-.02-1.19.81.3.58.53,1.21.88,1.77.39.62.99,1.04,1.62,1.36.83.42,1.45-.89.62-1.31ZM46.31,88.14c-.47.47-1.02.51-1.65.52-.92.02-.81,1.47.12,1.45,1.03-.02,1.87-.26,2.62-1.01.66-.66-.43-1.62-1.08-.96ZM51.5,89.38c-.82.42-1.6.64-2.51.66-.93.02-.81,1.47.12,1.45,1.16-.02,2.16-.36,3.19-.9.82-.43.01-1.63-.8-1.21ZM53.58,92.38c-.58.56-1.62.52-2.37.53-.93.02-.81,1.47.11,1.45,1.2-.02,2.43-.15,3.33-1.02.67-.65-.42-1.6-1.08-.96ZM56.12,96.66c-.84-.75-2.08-.68-2.9-1.41-.7-.62-1.64.47-.94,1.09.84.75,2.09.68,2.9,1.41.7.62,1.64-.47.94-1.09ZM51.29,99.81c-.57-1.07-1.33-2.01-1.4-3.27-.05-.94-1.48-.83-1.43.11.08,1.53.94,2.67,1.64,3.97.44.83,1.63.01,1.19-.81ZM5.61,106.81c-.83-.02-1.79-.68-2.37-1.23-.69-.64-1.63.46-.94,1.09.9.84,2.19,1.55,3.43,1.59.92.03.8-1.43-.11-1.45ZM8.99,106.21c-.84-.82-1.54-1.69-2.09-2.73-.44-.83-1.63-.01-1.19.81.61,1.16,1.41,2.11,2.34,3.02.67.66,1.61-.44.94-1.09ZM10.91,103.11l.05,2.19c.02.94,1.5.83,1.48-.11l-.05-2.19c-.02-.94-1.5-.83-1.48.11ZM15.8,103.23l-1.4,1.48c-.64.68.44,1.64,1.08.96l1.4-1.48c.64-.68-.44-1.64-1.08-.96ZM3.05,110c-.35.34-.9.47-1.34.63-.56.2-1.06.46-1.49.88-.67.65.42,1.6,1.08.96.35-.34.89-.47,1.34-.63.56-.2,1.06-.46,1.49-.88.67-.65-.42-1.6-1.08-.96ZM7.38,111.38l-.7.74c-.64.68.44,1.64,1.08.97l.7-.74c.64-.68-.44-1.64-1.08-.96ZM12.95,112.47c-.02.8-.52,1.38-1.35,1.41-.93.03-1.04-1.56-.11-1.56h.04s0,.11,0,.11c.02-.38.24-.65.65-.68.36-.03.78.33.77.73ZM42.95,44.97c-1.29,0-2.35-.66-2.98-1.8-.46-.82-1.64,0-1.19.81.89,1.6,2.51,2.43,4.29,2.45.92,0,.8-1.45-.12-1.45ZM42.74,40.65l.05,2.18c.02.94,1.49.83,1.47-.11l-.05-2.18c-.02-.94-1.5-.83-1.48.11ZM48.09,40.02l-1.4,1.48c-.64.68.44,1.64,1.08.96l1.4-1.48c.64-.68-.44-1.64-1.08-.97ZM52.43,41.41c-.47.47-1.02.51-1.65.52-.93.02-.81,1.47.12,1.45,1.03-.02,1.87-.26,2.62-1.01.66-.66-.43-1.62-1.08-.97ZM55.54,45.6c-.98.5-2,.61-2.61-.47-.46-.82-1.65,0-1.19.81,1.03,1.82,2.96,1.7,4.6.87.83-.42.01-1.63-.8-1.21ZM41.09,47.43c-.47.47-1.02.51-1.65.52-.93.02-.81,1.47.11,1.45,1.03-.02,1.87-.26,2.62-1.01.66-.66-.43-1.62-1.08-.96ZM44.7,48.82c-.42.44-.98,1.2-1.64,1.25-.92.07-.81,1.52.12,1.45,1.1-.08,1.89-.99,2.6-1.74.64-.68-.44-1.64-1.08-.96ZM48.12,51.44h-.72c-.93.03-.81,1.48.12,1.47h.72c.93-.03.81-1.48-.11-1.47ZM92.61,28.13c-1.31.65-2.67.74-4.11.76-.93.02-.81,1.47.11,1.45,1.55-.03,3.05-.14,4.47-.84.82-.41.35-1.79-.47-1.38ZM92.52,24.65c-.44-.43-1.19-1-1.24-1.67-.07-.94-1.5-.83-1.43.11.09,1.11.98,1.92,1.73,2.65.67.66,1.61-.44.94-1.09ZM95.5,19.35c0,1.04-.63,1.9-.65,2.93,0,.41.27.61.58.64.06.02.12.04.2.04.42,0,.62-.32.63-.65.01-.05.03-.08.03-.13,0-.34.23-.71.33-1.02.22-.63.32-1.24.32-1.91,0-.94-1.43-.83-1.43.11ZM103.04,20.75c-1.36.77-2.17,2.21-3.52,2.97-.81.46,0,1.67.8,1.21,1.36-.77,2.16-2.21,3.52-2.97.81-.46,0-1.67-.8-1.21ZM105.3,25.81c-1.05.54-1.8.52-2.87.01-.84-.4-1.46.91-.62,1.31.65.3,1.35.6,2.08.59.81-.01,1.51-.33,2.22-.7.82-.42,0-1.63-.8-1.21ZM104.87,31.72c-.97-.92-2.14-1.5-2.81-2.72-.23-.42-.65-.41-.95-.2-.38-.17-.92-.05-1.07.48-.62,2.21-.63,4.47-.58,6.75.02.94,1.45.83,1.43-.11-.04-1.88-.03-3.72.36-5.54.74.98,1.78,1.58,2.68,2.43.68.64,1.62-.45.94-1.09ZM97.12,29.48c-.42.03-.64.38-.66.78,0,.25-.2.5-.34.69-.26.35-.57.67-.87.99-.64.68.44,1.64,1.08.96.74-.78,1.52-1.6,1.56-2.75.01-.4-.42-.7-.77-.67ZM91.02,84.99c-1.31.65-2.67.74-4.11.76-.92.02-.81,1.47.12,1.45,1.55-.03,3.05-.14,4.46-.84.82-.41.35-1.79-.47-1.38ZM88.27,82.09c-.83.01-1.7.11-2.35-.5-.69-.64-1.63.46-.94,1.09.97.9,2.18.88,3.41.86.93-.02.81-1.47-.12-1.45ZM92.32,79.29c-.92-.9-1.93-1.74-1.99-3.11-.04-.94-1.47-.83-1.43.11.08,1.79,1.28,2.92,2.47,4.1.67.65,1.61-.44.95-1.09ZM95.43,76.53c-.59,1.23-1.37,2.03-2.56,2.68-.82.44,0,1.65.8,1.21,1.4-.76,2.36-1.8,3.05-3.25.4-.84-.89-1.48-1.29-.64ZM97.77,79.97c-.3.3-.67.49-1.04.69-.41.21-.76.48-1.08.81-.66.66.43,1.62,1.08.96.3-.3.67-.49,1.04-.69.4-.21.75-.48,1.08-.81.66-.66-.43-1.62-1.08-.96ZM100.51,84.06c-.33-.01-.67-.25-.96-.39-.39-.19-.78-.29-1.21-.3-.39-.01-.69.42-.66.78.04.43.38.66.77.67.32.01.67.25.96.39.39.19.78.29,1.21.3.39.02.69-.42.66-.78-.04-.43-.38-.66-.77-.67ZM120.43,85.37c-.58-.59-1.2-1.54-1.26-2.4-.06-.94-1.49-.83-1.43.11.08,1.24.9,2.52,1.74,3.38.66.67,1.59-.43.94-1.09ZM42.7,97.43c-1.03.02-1.87.26-2.62,1.01-.66.66.43,1.62,1.08.96.47-.47,1.02-.51,1.65-.52.93-.02.81-1.47-.11-1.45ZM67.7,12.61c-1.05.54-1.81.52-2.87.01-.84-.39-1.46.91-.62,1.31.65.31,1.35.6,2.08.59.81-.01,1.51-.33,2.22-.7.82-.42,0-1.63-.8-1.21ZM68.49,9.03c-.89-.83-2.03-1.31-2.92-2.14-.69-.64-1.62.46-.94,1.09.89.83,2.03,1.31,2.92,2.14.69.64,1.63-.46.94-1.09ZM70.08,7.13c-.57-1.67-.77-3.48-1.55-5.07-.41-.83-1.76-.37-1.35.47.78,1.59.98,3.4,1.55,5.07.3.89,1.66.42,1.35-.47ZM74.35.4c-.84,1.76-1.91,3.39-2.75,5.15-.4.84.89,1.48,1.29.64.84-1.76,1.91-3.39,2.75-5.15.4-.84-.89-1.48-1.29-.64ZM77.4,3.83c-.65.64-1.69,1-2.53,1.3-.87.31-.4,1.69.47,1.38,1.1-.4,2.3-.88,3.14-1.71.66-.66-.43-1.61-1.08-.96ZM79.64,7.43c-.61.62-1.57.52-2.37.53-.93.02-.81,1.47.12,1.45,1.26-.02,2.4-.08,3.33-1.02.66-.66-.43-1.62-1.08-.96ZM80.8,13.92l-2.2-2.15c-.67-.65-1.61.44-.94,1.09l2.2,2.15c.67.66,1.61-.44.94-1.09ZM71.46,13.35c-.67-.66-1.61.44-.94,1.09.24.23,1,.79.7,1.14-.6.71.48,1.68,1.08.96,1-1.19.07-2.32-.83-3.2ZM92.73,87.15c.01.65-.05,1.16-.49,1.66-.62.69.46,1.66,1.08.96.71-.79.86-1.69.84-2.73-.02-.94-1.45-.83-1.43.11ZM108.21,75.93l-2.15.04c-.92.02-.8,1.51.12,1.5l2.15-.04c.93-.02.81-1.51-.12-1.5ZM132.91,87.92c0,.23.01.44-.02.66,0,.02,0,.02,0,.03-.92.06-.81,1.51.12,1.45,1.22-.08,1.36-1.25,1.34-2.25-.02-.94-1.45-.83-1.43.11ZM124.25,117.94l.07,2.91c.02.94,1.5.83,1.47-.11l-.07-2.91c-.02-.94-1.5-.83-1.48.11ZM128.18,117.91c-.82-.44-1.44.87-.62,1.31,1.12.6,1.09,1.89,1.11,3.02.02.94,1.45.83,1.43-.11-.04-1.71-.28-3.35-1.92-4.22ZM134.98,117.71c-.33-.01-.67-.25-.96-.39-.39-.18-.78-.29-1.21-.3-.39-.02-.69.42-.66.78.03.43.38.66.77.67.32.01.67.25.96.39.39.18.78.29,1.21.3.39.01.69-.42.66-.78-.03-.43-.38-.66-.77-.67ZM134.88,113.35c-.32-.01-.67-.25-.96-.39-.39-.18-.78-.29-1.21-.3-.39-.01-.69.42-.66.78.03.43.38.66.77.67.33.01.67.26.96.39.39.18.78.29,1.21.3.39.01.69-.42.66-.78-.03-.43-.38-.66-.77-.67ZM123.4,113.18l-2.87.05c-.92.02-.81,1.51.12,1.5l2.87-.05c.93-.02.81-1.51-.12-1.5ZM131.22,110.05h-.41c.11,0,.2-.39.27-.54.17-.34.05-.81.05-1.17-.02-.94-1.52-.86-1.52.07v.27s.18,0,.17.02c0,0,.18,0,.18,0h0s-.1.03-.1.04c-.04.05-.12.1-.16.15-.12.14-.27.28-.4.41-.49.52.02,1.36.58,1.35.02.37.27.91.74.9h.72c.93-.03.81-1.53-.12-1.51ZM38.89,64.17l-1.47-1.43c-.67-.66-1.61.44-.94,1.09l1.47,1.43c.67.65,1.61-.44.94-1.09ZM41.16,61.03c-.23,0-.44-.03-.66-.08.06.01-.16-.08-.15-.07-.04-.02-.11-.09-.08-.05-.05-.06-.09-.15-.09-.23.01-.24.1-.46.19-.68.38-.85-.91-1.49-1.29-.64-.33.75-.51,1.64,0,2.36.5.7,1.4.84,2.19.84.92,0,.81-1.46-.12-1.45ZM42.41,58.87l.05,2.18c.02.94,1.49.83,1.47-.11l-.05-2.18c-.02-.94-1.5-.83-1.48.11ZM37.21,66.44c-.3.3-.67.49-1.04.69-.4.22-.75.48-1.08.81-.66.66.43,1.62,1.08.96.3-.3.67-.49,1.04-.69.41-.21.76-.48,1.08-.81.66-.66-.43-1.62-1.08-.96ZM40.6,67.6c-.42.03-.65.38-.66.78,0-.01,0-.03.01-.04,0,.03,0,.04,0,.05,0,0-.01,0-.03.03-.08.11-.19.21-.28.31-.28.32-.37.7-.38,1.12,0,.4.41.7.77.67.42-.03.65-.38.66-.78,0,.01,0,.03-.01.04,0-.03,0-.04,0-.05,0,0,.01,0,.03-.03.08-.11.19-.21.28-.31.27-.32.37-.7.38-1.12,0-.4-.41-.7-.77-.67ZM45.49,70.62c-.44-.43-1.19-1-1.24-1.67-.07-.94-1.5-.83-1.43.11.08,1.11.98,1.92,1.73,2.65.67.65,1.61-.44.94-1.09ZM46.18,60.95h-.72c-.93.03-.81,1.48.11,1.46h.72c.93-.03.81-1.48-.11-1.46ZM63.91,51.9c-.33.01-.65.11-.97.2-.27-.2-.66-.25-.95.07-.22.24-.37.49-.36.82.01.47.48.72.89.71.26,0,.54-.12.79-.19.29-.09.45-.14.72-.15.93-.04.81-1.5-.12-1.45ZM63.64,48.45c-.78-.76-1.58-1.56-2.71-1.6-.39-.02-.69.42-.66.78.03.43.38.66.77.67.24.01.49.21.68.35.35.26.66.58.98.89.67.66,1.61-.44.94-1.09ZM65.93,43.9c.03,1.19-.07,2.18-.57,3.28-.38.85.91,1.49,1.29.64.6-1.33.74-2.57.7-4.03-.02-.94-1.45-.83-1.43.11ZM71.74,48.86c-.64.01-1.15-.06-1.64-.51-.69-.64-1.63.46-.94,1.09.78.73,1.67.89,2.7.87.92-.01.81-1.47-.12-1.45ZM73.1,54.12c-1-.97-2.01-1.58-3.43-1.59-.93,0-.81,1.45.11,1.45,1.01,0,1.67.55,2.37,1.23.67.66,1.61-.44.94-1.09ZM71.01,57.07c-.78-.76-1.58-1.56-2.71-1.6-.39-.02-.69.42-.66.78.04.43.38.66.77.67.24.01.49.21.68.35.35.26.66.58.98.89.67.65,1.61-.44.94-1.09ZM106.96,41.93c-.42.44-.98,1.2-1.64,1.25-.92.07-.81,1.52.12,1.45,1.1-.08,1.89-.99,2.6-1.74.64-.68-.44-1.64-1.08-.97ZM111.8,44.37l-3.59.06c-.92.02-.81,1.51.12,1.5l3.59-.06c.92-.02.81-1.51-.12-1.5ZM112.62,48.89c-.77.01-1.74.05-2.36-.5-.7-.62-1.64.47-.94,1.09.94.83,2.23.88,3.41.86.92-.01.81-1.47-.11-1.45ZM107.99,52.22c-.08-.09-.16-.17-.25-.25.07.07.01,0-.03-.05,0-.01,0-.03,0-.08-.07-.94-1.5-.83-1.43.11.03.42.19.76.47,1.06.08.09.16.17.25.25-.07-.08-.01,0,.03.05,0,.01,0,.03,0,.08.06.94,1.49.83,1.43-.11-.03-.42-.19-.76-.47-1.06ZM102.6,49.79c-.92.02-.81,1.47.12,1.45.93-.02.81-1.47-.12-1.45ZM104.45,44.84l-2.2-2.15c-.67-.65-1.61.44-.94,1.09l2.2,2.15c.67.66,1.61-.44.94-1.09ZM83.08,41.33c-.02.8-.52,1.07-1.36,1.1-.92.03-1.04-1.88-.12-1.88h.04s0,.42,0,.42c.02-.37.24-.48.64-.52-.14,0-.29.06-.44-.08l-2.93-2.81c-.66-.65.27-1.72.94-1.07l2.93,2.88c.5.49.1,1.23-.41,1.29.34.02.7.3.69.67ZM83.58,36.6c-.54-1.07-.65-2.09-.68-3.28-.02-.94-1.45-.83-1.43.11.04,1.46.26,2.67.92,3.98.42.84,1.61.02,1.19-.81ZM88.15,34.97c-.61.62-1.57.52-2.37.53-.93.02-.81,1.47.12,1.45,1.26-.02,2.4-.08,3.33-1.02.66-.66-.43-1.62-1.08-.96ZM88,38.38h-.72c-.93.03-.81,1.48.12,1.47h.72c.93-.03.81-1.48-.12-1.47Z"/></g></svg>